<svg width="160" height="31" viewBox="0 0 160 31" fill="none" xmlns="http://www.w3.org/2000/svg">
<path d="M106 4H160V7H106V4Z" fill="#181A3F"/>
<path d="M106 24H160V27H106V24Z" fill="#181A3F"/>
<path d="M7.732 22.234C6.88 22.234 6.079 22.066 5.329 21.73C4.579 21.388 3.919 20.92 3.349 20.326C2.785 19.726 2.341 19.03 2.017 18.238C1.699 17.446 1.54 16.6 1.54 15.7C1.54 14.8 1.699 13.954 2.017 13.162C2.341 12.37 2.785 11.677 3.349 11.083C3.919 10.483 4.579 10.015 5.329 9.679C6.079 9.337 6.88 9.166 7.732 9.166C8.752 9.166 9.691 9.403 10.549 9.877C11.407 10.351 12.118 10.981 12.682 11.767L11.566 12.37C11.122 11.776 10.558 11.305 9.874 10.957C9.196 10.603 8.482 10.426 7.732 10.426C7.042 10.426 6.397 10.567 5.797 10.849C5.203 11.125 4.681 11.506 4.231 11.992C3.781 12.478 3.43 13.039 3.178 13.675C2.926 14.311 2.8 14.986 2.8 15.7C2.8 16.426 2.926 17.107 3.178 17.743C3.436 18.379 3.79 18.94 4.24 19.426C4.696 19.912 5.221 20.293 5.815 20.569C6.415 20.839 7.054 20.974 7.732 20.974C8.512 20.974 9.235 20.797 9.901 20.443C10.573 20.083 11.128 19.615 11.566 19.039L12.682 19.642C12.118 20.428 11.407 21.058 10.549 21.532C9.691 22 8.752 22.234 7.732 22.234ZM19.3608 9.4H20.9268L25.5168 22H24.1758L23.1948 19.3H17.1018L16.1208 22H14.7798L19.3608 9.4ZM17.5608 18.04H22.7268L20.1438 10.948L17.5608 18.04ZM28.0984 22V9.4H32.3734C33.0454 9.4 33.6514 9.565 34.1914 9.895C34.7314 10.219 35.1604 10.66 35.4784 11.218C35.7964 11.77 35.9554 12.391 35.9554 13.081C35.9554 13.699 35.8294 14.26 35.5774 14.764C35.3254 15.268 34.9804 15.685 34.5424 16.015C34.1104 16.345 33.6214 16.564 33.0754 16.672L36.1534 22H34.6954L31.6624 16.771H29.3584V22H28.0984ZM29.3584 15.511H32.2654C32.7094 15.511 33.1144 15.403 33.4804 15.187C33.8524 14.965 34.1464 14.668 34.3624 14.296C34.5844 13.918 34.6954 13.492 34.6954 13.018C34.6954 12.544 34.5844 12.121 34.3624 11.749C34.1464 11.371 33.8524 11.074 33.4804 10.858C33.1144 10.636 32.7094 10.525 32.2654 10.525H29.3584V15.511ZM48.2593 9.4V10.66H43.9393V22H42.6793V10.66H38.3683V9.4H48.2593ZM58.3774 23.008C57.7714 22.438 57.2794 21.793 56.9014 21.073C56.5294 20.353 56.2564 19.582 56.0824 18.76C55.9144 17.932 55.8304 17.08 55.8304 16.204C55.8304 15.724 55.8634 15.22 55.9294 14.692C56.0014 14.164 56.1064 13.642 56.2444 13.126C56.3824 12.604 56.5534 12.106 56.7574 11.632C56.9614 11.158 57.1984 10.729 57.4684 10.345C57.7384 9.961 58.0414 9.646 58.3774 9.4H59.6374C59.3314 9.694 59.0494 10.036 58.7914 10.426C58.5394 10.81 58.3114 11.23 58.1074 11.686C57.9034 12.142 57.7264 12.622 57.5764 13.126C57.4324 13.624 57.3184 14.134 57.2344 14.656C57.1504 15.172 57.1024 15.688 57.0904 16.204C57.1144 17.146 57.2314 18.031 57.4414 18.859C57.6574 19.687 57.9514 20.449 58.3234 21.145C58.6954 21.835 59.1334 22.456 59.6374 23.008H58.3774Z" fill="#181A3F"/>
<path d="M82.9 23.008C83.404 22.456 83.842 21.835 84.214 21.145C84.586 20.449 84.877 19.687 85.087 18.859C85.303 18.031 85.423 17.146 85.447 16.204C85.435 15.688 85.387 15.172 85.303 14.656C85.219 14.134 85.102 13.624 84.952 13.126C84.808 12.622 84.634 12.142 84.43 11.686C84.226 11.23 83.995 10.81 83.737 10.426C83.485 10.036 83.206 9.694 82.9 9.4H84.16C84.496 9.646 84.796 9.961 85.06 10.345C85.33 10.729 85.567 11.158 85.771 11.632C85.981 12.106 86.155 12.604 86.293 13.126C86.431 13.642 86.533 14.164 86.599 14.692C86.671 15.22 86.707 15.724 86.707 16.204C86.707 17.08 86.62 17.932 86.446 18.76C86.278 19.582 86.005 20.353 85.627 21.073C85.255 21.793 84.766 22.438 84.16 23.008H82.9Z" fill="#181A3F"/>
<path d="M73.0117 22.234C72.2557 22.234 71.5807 22.066 70.9867 21.73C70.3927 21.388 69.8857 20.917 69.4657 20.317C69.0457 19.717 68.7247 19.024 68.5027 18.238C68.2867 17.446 68.1787 16.6 68.1787 15.7C68.1787 14.8 68.2867 13.954 68.5027 13.162C68.7247 12.37 69.0457 11.677 69.4657 11.083C69.8857 10.483 70.3927 10.015 70.9867 9.679C71.5807 9.337 72.2557 9.166 73.0117 9.166C73.7617 9.166 74.4337 9.337 75.0277 9.679C75.6217 10.015 76.1257 10.483 76.5397 11.083C76.9537 11.677 77.2687 12.37 77.4847 13.162C77.7067 13.954 77.8177 14.8 77.8177 15.7C77.8177 16.6 77.7067 17.446 77.4847 18.238C77.2687 19.024 76.9537 19.717 76.5397 20.317C76.1257 20.917 75.6217 21.388 75.0277 21.73C74.4337 22.066 73.7617 22.234 73.0117 22.234ZM73.0117 20.974C73.8037 20.974 74.4667 20.731 75.0007 20.245C75.5407 19.759 75.9457 19.117 76.2157 18.319C76.4857 17.515 76.6207 16.642 76.6207 15.7C76.6207 14.704 76.4797 13.81 76.1977 13.018C75.9217 12.22 75.5137 11.59 74.9737 11.128C74.4397 10.66 73.7857 10.426 73.0117 10.426C72.3997 10.426 71.8657 10.567 71.4097 10.849C70.9537 11.131 70.5757 11.518 70.2757 12.01C69.9757 12.502 69.7507 13.066 69.6007 13.702C69.4507 14.332 69.3757 14.998 69.3757 15.7C69.3757 16.648 69.5137 17.524 69.7897 18.328C70.0657 19.126 70.4737 19.768 71.0137 20.254C71.5537 20.734 72.2197 20.974 73.0117 20.974Z" fill="#181A3F"/>
</svg>
